<svg width="40" height="37" viewBox="0 0 40 37" fill="none" xmlns="http://www.w3.org/2000/svg">
<path fill-rule="evenodd" clip-rule="evenodd" d="M21.626 14.4762C31.0363 15.5534 39.9456 25.5314 40 25.5924C40 25.5924 30.036 36.8219 20.0361 36.8043C10.0361 36.7865 0 25.5211 0 25.5211C0.0488221 25.4669 8.96068 15.5859 18.3438 14.4821L19.7285 17.7203C15.5031 17.8635 12.1213 21.3321 12.1211 25.5924C12.1211 29.9437 15.6487 33.4713 20 33.4713C24.3512 33.4712 27.8789 29.9437 27.8789 25.5924C27.8787 21.3214 24.4797 17.846 20.2393 17.7194L21.626 14.4762ZM20 19.5319C21.004 19.5319 21.8182 20.3463 21.8184 21.3502C21.8182 22.3542 21.004 23.1675 20 23.1676C18.996 23.1676 18.1818 22.3542 18.1816 21.3502C18.1818 20.3462 18.996 19.5319 20 19.5319Z" fill="black"/>
<path d="M20.0186 0C22.1132 4.42789e-08 23.8725 0.488692 25.108 0.976999C25.726 1.22126 26.2141 1.4659 26.5489 1.65022C26.7162 1.74239 26.8454 1.81957 26.9335 1.87419C26.9775 1.90149 27.0113 1.92309 27.0344 1.9382C27.046 1.94575 27.0549 1.95167 27.0611 1.95583C27.0641 1.95789 27.0665 1.95963 27.0682 1.96081C27.0691 1.96139 27.0699 1.96179 27.0704 1.96214C27.0706 1.96232 27.0709 1.96252 27.071 1.96264L27.0712 1.96281C27.0713 1.96287 27.0715 1.96295 26.9266 2.17347L27.0715 1.96298L27.2443 2.08136L20.0186 18.9525L12.793 2.08136L12.9657 1.96298L13.1106 2.17347C12.9658 1.96295 12.9659 1.96287 12.966 1.96281L12.9662 1.96264C12.9664 1.96252 12.9666 1.96232 12.9669 1.96214C12.9674 1.96179 12.9682 1.96139 12.969 1.96081C12.9708 1.95963 12.9731 1.95789 12.9762 1.95583C12.9824 1.95167 12.9913 1.94575 13.0028 1.9382C13.026 1.92309 13.0598 1.90149 13.1038 1.87419C13.1918 1.81957 13.321 1.74239 13.4884 1.65022C13.8231 1.4659 14.3112 1.22126 14.9292 0.976999C16.1647 0.488692 17.9241 0 20.0186 0ZM20.0186 0.510779C18.0034 0.510779 16.3087 0.981124 15.1176 1.45186C14.5224 1.68712 14.054 1.922 13.7356 2.09732C13.6104 2.16629 13.5087 2.22643 13.4314 2.27323L20.0186 17.6533L26.6057 2.27323C26.5284 2.22644 26.4268 2.16625 26.3017 2.09732C25.9833 1.922 25.5149 1.68712 24.9196 1.45186C23.7286 0.981124 22.0339 0.510779 20.0186 0.510779Z" fill="black"/>
</svg>
