<svg width="107" height="28" viewBox="0 0 107 28" fill="none" xmlns="http://www.w3.org/2000/svg">
<path d="M107 8.16614L99.1248 13.4164L106.385 19.813H102.165L96.7157 15.0114L94.7053 16.3571V19.7964H91.9141V8.16614H94.7053V13.001L101.966 8.16614H107Z" fill="black"/>
<path d="M89.0442 15.3104L91.0712 17.2211C89.5592 18.8327 86.984 19.7964 84.2094 19.7964C79.5905 19.7964 75.9685 17.2211 75.9685 13.8982C75.9685 10.5919 79.5905 8 84.2094 8C86.1533 8 88.0307 8.48182 89.4928 9.34578L88.0806 11.7549C87.0338 11.1402 85.6548 10.7913 84.2094 10.7913C81.0027 10.7913 78.7598 12.4361 78.7598 13.8982C78.7598 15.3769 81.0027 17.0051 84.2094 17.0051C86.2031 17.0051 88.0473 16.3571 89.0442 15.3104Z" fill="black"/>
<path d="M74.7871 19.813H71.9958V8.18274H74.7871V19.813Z" fill="black"/>
<path d="M71.1394 19.813V19.7964H67.1851L64.344 17.1048C64.1945 17.1048 64.0616 17.1214 63.912 17.1214H58.6951V19.813H55.9038V8.18274H63.912C67.3513 8.18274 70.0428 10.1433 70.0428 12.6521C70.0428 14.1806 69.046 15.5098 67.4676 16.3073L71.1394 19.813ZM58.6951 10.8743V14.4298H63.912C65.8227 14.4298 67.2516 13.4828 67.2516 12.6521C67.2516 11.8047 65.8227 10.8743 63.912 10.8743H58.6951Z" fill="black"/>
<path d="M48.2077 8.18274C51.8795 8.18274 54.7538 10.3426 54.7538 13.1007C54.7538 15.8421 51.8961 18.002 48.2575 18.0186L43.0405 18.0518V19.7963H40.2493V8.18274H48.2077ZM48.2409 15.2273C50.434 15.2107 51.9626 14.0975 51.9626 13.1007C51.9626 12.0872 50.4174 10.974 48.2077 10.974H43.0405V15.2606L48.2409 15.2273Z" fill="black"/>
<path d="M35.633 8.18274H38.4409V19.813H35.2177L25.0828 11.5887V19.7964H22.2915V8.19935H25.332L35.633 16.5565V8.18274Z" fill="black"/>
<path d="M20.4458 19.813H17.6545V8.18274H20.4458V19.813Z" fill="black"/>
<path d="M9.9584 8.18274C13.6302 8.18274 16.5046 10.3426 16.5046 13.1007C16.5046 15.8421 13.6468 18.002 10.0082 18.0186L4.79125 18.0518V19.7963H2V8.18274H9.9584ZM9.99163 15.2273C12.1848 15.2107 13.7133 14.0975 13.7133 13.1007C13.7133 12.0872 12.1681 10.974 9.9584 10.974H4.79125V15.2606L9.99163 15.2273Z" fill="black"/>
</svg>
